<svg width="116" height="92" viewBox="0 0 116 92" fill="none" xmlns="http://www.w3.org/2000/svg">
<path id="Shape" d="M1 90.5C0.723858 90.5 0.5 90.7238 0.5 91C0.5 91.2761 0.723858 91.5 1 91.5V90.5ZM114.916 4.35355C115.111 4.15829 115.111 3.84171 114.916 3.64645L111.734 0.464466C111.539 0.269204 111.222 0.269204 111.027 0.464466C110.832 0.659728 110.832 0.976311 111.027 1.17157L113.855 4L111.027 6.82843C110.832 7.02369 110.832 7.34027 111.027 7.53553C111.222 7.7308 111.539 7.7308 111.734 7.53553L114.916 4.35355ZM1 91.5H28.5625V90.5H1V91.5ZM53.0625 67V28H52.0625V67H53.0625ZM76.5625 4.5H114.562V3.5H76.5625V4.5ZM53.0625 28C53.0625 15.0213 63.5838 4.5 76.5625 4.5V3.5C63.0315 3.5 52.0625 14.469 52.0625 28H53.0625ZM28.5625 91.5C42.0935 91.5 53.0625 80.531 53.0625 67H52.0625C52.0625 79.9787 41.5412 90.5 28.5625 90.5V91.5Z" fill="#E9EAEB"/>
</svg>
