<svg xmlns="http://www.w3.org/2000/svg" width="38" height="30" viewBox="0 0 38 30" fill="none">
  <path d="M29.2119 3.38281L19.1087 11.2675L8.77441 3.38281L8.77441 3.38494L8.7869 3.3956L8.7869 14.4363L18.9921 22.4915L29.2119 14.7474L29.2119 3.38281Z" fill="#EA4335"/>
  <path d="M31.8642 1.46453L29.2109 3.38243L29.2109 14.7471L37.5599 8.33701L37.5599 4.47563C37.5599 4.47563 36.5465 -1.0394 31.8642 1.46453Z" fill="#FBBC05"/>
  <path d="M29.2109 14.7479L29.2109 29.4881L35.61 29.4881C35.61 29.4881 37.4309 29.3006 37.562 27.225L37.562 8.33789L29.2109 14.7479Z" fill="#34A853"/>
  <path d="M8.78737 29.5005L8.78737 14.4364L8.77441 14.4258L8.78737 29.5005Z" fill="#C5221F"/>
  <path d="M8.77398 3.38564L6.13527 1.47839C1.45303 -1.02554 0.4375 4.48736 0.4375 4.48736L0.4375 8.34874L8.77398 14.4264L8.77398 3.38564Z" fill="#C5221F"/>
  <path d="M8.77441 3.38477L8.77441 14.4255L8.78737 14.4361L8.78737 3.39542L8.77441 3.38477Z" fill="#C5221F"/>
  <path d="M0.4375 8.34961L0.4375 27.2367C0.566522 29.3144 2.38948 29.4998 2.38948 29.4998L8.78854 29.4998L8.77398 14.4251L0.4375 8.34961Z" fill="#4285F4"/>
</svg>