<svg xmlns="http://www.w3.org/2000/svg" width="14" height="16" viewBox="0 0 14 16" fill="none">
                    <path d="M5.36991 3.41468L5.81362 4.64261C6.3071 6.00544 7.38458 7.07845 8.75299 7.56988L9.98599 8.01176C10.0973 8.05168 10.0973 8.20862 9.98599 8.24855L8.75299 8.69043C7.38452 9.18188 6.30708 10.2549 5.81362 11.6177L5.36991 12.8456C5.32982 12.9564 5.17224 12.9564 5.13215 12.8456L4.68844 11.6177C4.19496 10.2549 3.11748 9.18186 1.74907 8.69043L0.516073 8.24855C0.404799 8.20862 0.404799 8.05169 0.516073 8.01176L1.74907 7.56988C3.11753 7.07843 4.19498 6.00539 4.68844 4.64261L5.13215 3.41468C5.17224 3.30318 5.32982 3.30318 5.36991 3.41468Z" fill="#252B37" />
                    <path d="M10.9174 0.464722L11.1427 1.08624C11.3929 1.77592 11.9382 2.31967 12.6314 2.56884L13.2555 2.79322C13.3122 2.81387 13.3122 2.89302 13.2555 2.91298L12.6314 3.13736C11.9389 3.38653 11.3929 3.92959 11.1427 4.61995L10.9174 5.24148C10.8967 5.29792 10.8172 5.29792 10.7971 5.24148L10.5718 4.61995C10.3216 3.93027 9.77632 3.38653 9.0831 3.13736L8.45901 2.91298C8.40234 2.89233 8.40234 2.81318 8.45901 2.79322L9.0831 2.56884C9.77563 2.31967 10.3216 1.77661 10.5718 1.08624L10.7971 0.464722C10.8172 0.407593 10.8973 0.407593 10.9174 0.464722Z" fill="#252B37" />
                    <path d="M10.9174 11.0218L11.1427 11.6433C11.3929 12.333 11.9382 12.8768 12.6314 13.1259L13.2555 13.3503C13.3122 13.371 13.3122 13.4501 13.2555 13.4701L12.6314 13.6945C11.9389 13.9436 11.3929 14.4867 11.1427 15.1771L10.9174 15.7986C10.8967 15.855 10.8172 15.855 10.7971 15.7986L10.5718 15.1771C10.3216 14.4874 9.77632 13.9436 9.0831 13.6945L8.45901 13.4701C8.40234 13.4494 8.40234 13.3703 8.45901 13.3503L9.0831 13.1259C9.77563 12.8768 10.3216 12.3337 10.5718 11.6433L10.7971 11.0218C10.8172 10.9654 10.8973 10.9654 10.9174 11.0218Z" fill="#252B37" />
                  </svg>