<svg width="116" height="8" viewBox="0 0 116 8" fill="none" xmlns="http://www.w3.org/2000/svg">
<path id="Shape" d="M0.5625 3.5C0.286358 3.5 0.0625 3.72386 0.0625 4C0.0625 4.27614 0.286358 4.5 0.5625 4.5V3.5ZM114.916 4.35355C115.111 4.15829 115.111 3.84171 114.916 3.64645L111.734 0.464466C111.539 0.269204 111.222 0.269204 111.027 0.464466C110.832 0.659728 110.832 0.976311 111.027 1.17157L113.855 4L111.027 6.82843C110.832 7.02369 110.832 7.34027 111.027 7.53553C111.222 7.7308 111.539 7.7308 111.734 7.53553L114.916 4.35355ZM0.5625 4.5H114.562V3.5H0.5625V4.5Z" fill="#E9EAEB"/>
</svg>
