<svg xmlns="http://www.w3.org/2000/svg" width="52" height="49" viewBox="0 0 52 49" fill="none">
  <path d="M35.7769 27.9954C35.7769 25.2214 38.04 22.9609 40.8248 22.9609C43.6086 22.9609 45.8728 25.2214 45.8728 27.9954C45.8728 30.7694 43.6086 33.0299 40.8248 33.0299C38.0411 33.0299 35.7769 30.7694 35.7769 27.9954ZM37.0871 27.9966C37.0871 30.054 38.7639 31.7265 40.8248 31.7265C42.8845 31.7265 44.5626 30.0542 44.5626 27.9966C44.5626 25.939 42.8845 24.2667 40.8248 24.2667C38.7652 24.2667 37.0871 25.939 37.0871 27.9966Z" fill="#207C97" stroke="#207C97"/>
  <path d="M5.73242 27.9954C5.73242 25.2214 7.99558 22.9609 10.7804 22.9609C13.5641 22.9609 15.8284 25.2214 15.8284 27.9954C15.8284 30.7694 13.5641 33.0299 10.7804 33.0299C7.99667 33.0299 5.73242 30.7694 5.73242 27.9954ZM7.04264 27.9966C7.04264 30.054 8.7195 31.7265 10.7804 31.7265C12.84 31.7265 14.5182 30.0542 14.5182 27.9966C14.5182 25.939 12.84 24.2667 10.7804 24.2667C8.72077 24.2667 7.04264 25.939 7.04264 27.9966Z" fill="#207C97" stroke="#207C97"/>
  <path d="M25.8027 30.9663C22.8295 30.9663 20.4116 28.5526 20.4116 25.5896C20.4116 22.6266 22.8295 20.2129 25.8027 20.2129C28.7758 20.2129 31.1937 22.6266 31.1937 25.5896C31.1937 28.5526 28.7758 30.9663 25.8027 30.9663ZM25.8027 29.6617C28.0517 29.6617 29.8835 27.8362 29.8835 25.5896C29.8835 23.343 28.0517 21.5175 25.8027 21.5175C23.5536 21.5175 21.7218 23.343 21.7218 25.5896C21.7218 27.8362 23.5536 29.6617 25.8027 29.6617Z" fill="#207C97" stroke="#207C97"/>
  <path d="M39.5754 35.1261L39.5759 35.126C39.9764 35.1003 40.3965 35.0879 40.8248 35.0879C43.6619 35.0879 47.3012 35.6838 49.3464 38.3011L49.4039 38.3769C50.6563 40.0284 50.6873 41.6802 50.6873 41.8243V46.1443C50.6873 46.6322 50.6873 47.0901 50.6827 47.5085C50.6778 47.8651 50.3866 48.1528 50.0276 48.1528H50.0275H50.0275H50.0275H50.0275H50.0274H50.0274H50.0274H50.0274H50.0273H50.0273H50.0273H50.0272H50.0272H50.0272H50.0272H50.0271H50.0271H50.0271H50.0271H50.027H50.027H50.027H50.0269H50.0269H50.0269H50.0269H50.0268H50.0268H50.0268H50.0268H50.0267H50.0267H50.0267H50.0267H50.0266H50.0266H50.0266H50.0265H50.0265H50.0265H50.0265H50.0264H50.0264H50.0264H50.0264H50.0263H50.0263H50.0263H50.0262H50.0262H50.0262H50.0262H50.0261H50.0261H50.0261H50.0261H50.026H50.026H50.026H50.0259H50.0259H50.0259H50.0259H50.0258H50.0258H50.0258H50.0258H50.0257H50.0257H50.0257H50.0256H50.0256H50.0256H50.0256H50.0255H50.0255H50.0255H50.0255H50.0254H50.0254H50.0254H50.0254H50.0253H50.0253H50.0253H50.0252H50.0252H50.0252H50.0252H50.0251H50.0251H50.0251H50.0251H50.025H50.025H50.025H50.0249H50.0249H50.0249H50.0249H50.0248H50.0248H50.0248H50.0248H50.0247H50.0247H50.0247H50.0246H50.0246H50.0246H50.0246H50.0245H50.0245H50.0245H50.0245H50.0244H50.0244H50.0244H50.0244H50.0243H50.0243H50.0243H50.0242H50.0242H50.0242H50.0242H50.0241H50.0241H50.0241H50.0241H50.024H50.024H50.024H50.0239H50.0239H50.0239H50.0239H50.0238H50.0238H50.0238H50.0238H50.0237H50.0237H50.0237H50.0236H50.0236H50.0236H50.0236H50.0235H50.0235H50.0235H50.0235H50.0234H50.0234H50.0234H50.0233H50.0233H50.0233H50.0233H50.0232H50.0232H50.0232H50.0232H50.0231H50.0231H50.0231H50.0231H50.023H50.023H50.023H50.0229H50.0229H50.0229H50.0229H50.0228H50.0228H50.0228H50.0228H50.0227H50.0227H50.0227H50.0226H50.0226H50.0226H50.0226H50.0225H50.0225H50.0225H50.0225H50.0224H50.0224H50.0224H50.0223H50.0223H50.0223H50.0223H50.0222H50.0222H50.0222H50.0222H50.0221H50.0221H50.0221H50.022H50.022H50.022H50.022H50.0219H50.0219H50.0219H50.0219H50.0218H50.0218H50.0218H50.0218H50.0217H50.0217H50.0217H50.0216H50.0216H50.0216H50.0216H50.0215H50.0215H50.0215H50.0215H50.0214H50.0214H50.0214H50.0213H50.0213H50.0213H50.0213H50.0212H50.0212H50.0212H50.0212H50.0211H50.0211H50.0211H50.021H50.021H50.021H50.021H50.0209H50.0209H50.0209H50.0209H50.0208H50.0208H50.0208H50.0208H50.0207H50.0207H50.0207H50.0206H50.0206H50.0206H50.0206H50.0205H50.0205H50.0205H50.0205H50.0204H50.0204H50.0204H50.0203H50.0203H50.0203H50.0203H50.0202H50.0202H50.0202H50.0202H50.0201H50.0201H50.0201H50.02H50.02H50.02H50.02H50.0199H50.0199H50.0199H50.0199H50.0198H50.0198H50.0198H50.0197H50.0197H50.0197H50.0197H50.0196H50.0196H50.0196H50.0196H50.0195H50.0195H50.0195H50.0195H50.0194H50.0194H50.0194H50.0193H50.0193H50.0193H50.0193H50.0192H50.0192H50.0192H50.0192H50.0191H50.0191H50.0191H50.019H50.019H50.019H50.019H50.0189H50.0189H50.0189H50.0189H50.0188H50.0188H50.0188H50.0187H50.0187H50.0187H50.0187H50.0186H50.0186H50.0186H50.0186H50.0185H50.0185H50.0185H50.0184H50.0184H50.0184H50.0184H50.0183H50.0183H50.0183H50.0183H50.0182H50.0182H50.0182H50.0182H50.0181H50.0181H50.0181H50.018H50.018H50.018H50.018H50.0179H50.0179H50.0179H50.0179H50.0178H50.0178H50.0178H50.0177H50.0177H50.0177H50.0177H50.0176H50.0176H50.0176H50.0176H50.0175H50.0175H50.0175H50.0174H50.0174H50.0174H50.0174H50.0173H50.0173H50.0173H50.0173H50.0172H50.0172H50.0172H50.0171H50.0171H50.0171H50.0171H50.017H50.017H50.017H50.017H50.0169H50.0169H50.0169H50.0169H50.0168H50.0168H50.0168C49.6561 48.1476 49.3685 47.8521 49.3724 47.4933C49.3771 47.0826 49.3771 46.6262 49.3771 46.146V46.1443V41.8243C49.3771 41.7575 49.3343 40.3897 48.2868 39.0705L48.2867 39.0704C46.8529 37.2659 44.2182 36.3925 40.8248 36.3925C40.427 36.3925 40.0341 36.4043 39.6579 36.428L39.6577 36.4281C39.297 36.4509 38.9856 36.1764 38.9628 35.8179C38.94 35.4603 39.213 35.149 39.5754 35.1261Z" fill="#207C97" stroke="#207C97"/>
  <path d="M12.0298 35.1241L12.0295 35.1241C11.6277 35.0983 11.2076 35.0859 10.7804 35.0859C7.91677 35.0859 4.23539 35.6942 2.20134 38.3738L12.0298 35.1241ZM12.0298 35.1241C12.3923 35.1471 12.6653 35.4583 12.6425 35.8159C12.6197 36.1742 12.3074 36.449 11.9476 36.4261L11.9475 36.4261C11.5723 36.4023 11.1794 36.3905 10.7804 36.3905C7.38708 36.3905 4.75234 37.264 3.31856 39.0684L3.31846 39.0686C2.27087 40.3879 2.22818 41.7547 2.22818 41.8281V46.1412V46.1433C2.22818 46.6223 2.22818 47.0797 2.23284 47.4904L2.23284 47.4911C2.23739 47.8484 1.95002 48.1445 1.58849 48.1497H1.58847H1.58844H1.58842H1.58839H1.58836H1.58834H1.58831H1.58828H1.58826H1.58823H1.5882H1.58817H1.58815H1.58812H1.58809H1.58807H1.58804H1.58801H1.58798H1.58796H1.58793H1.5879H1.58788H1.58785H1.58782H1.5878H1.58777H1.58774H1.58771H1.58769H1.58766H1.58763H1.58761H1.58758H1.58755H1.58752H1.5875H1.58747H1.58744H1.58742H1.58739H1.58736H1.58733H1.58731H1.58728H1.58725H1.58723H1.5872H1.58717H1.58715H1.58712H1.58709H1.58706H1.58704H1.58701H1.58698H1.58696H1.58693H1.5869H1.58687H1.58685H1.58682H1.58679H1.58677H1.58674H1.58671H1.58669H1.58666H1.58663H1.5866H1.58658H1.58655H1.58652H1.5865H1.58647H1.58644H1.58641H1.58639H1.58636H1.58633H1.58631H1.58628H1.58625H1.58622H1.5862H1.58617H1.58614H1.58612H1.58609H1.58606H1.58604H1.58601H1.58598H1.58595H1.58593H1.5859H1.58587H1.58585H1.58582H1.58579H1.58576H1.58574H1.58571H1.58568H1.58566H1.58563H1.5856H1.58558H1.58555H1.58552H1.58549H1.58547H1.58544H1.58541H1.58539H1.58536H1.58533H1.5853H1.58528H1.58525H1.58522H1.5852H1.58517H1.58514H1.58511H1.58509H1.58506H1.58503H1.58501H1.58498H1.58495H1.58493H1.5849H1.58487H1.58484H1.58482H1.58479H1.58476H1.58474H1.58471H1.58468H1.58465H1.58463H1.5846H1.58457H1.58455H1.58452H1.58449H1.58447H1.58444H1.58441H1.58438H1.58436H1.58433H1.5843H1.58428H1.58425H1.58422H1.58419H1.58417H1.58414H1.58411H1.58409H1.58406H1.58403H1.584H1.58398H1.58395H1.58392H1.5839H1.58387H1.58384H1.58382H1.58379H1.58376H1.58373H1.58371H1.58368H1.58365H1.58363H1.5836H1.58357H1.58354H1.58352H1.58349H1.58346H1.58344H1.58341H1.58338H1.58336H1.58333H1.5833H1.58327H1.58325H1.58322H1.58319H1.58317H1.58314H1.58311H1.58308H1.58306H1.58303H1.583H1.58298H1.58295H1.58292H1.58289H1.58287H1.58284H1.58281H1.58279H1.58276H1.58273H1.58271H1.58268H1.58265H1.58262H1.5826H1.58257H1.58254H1.58252H1.58249H1.58246H1.58243H1.58241H1.58238H1.58235H1.58233H1.5823H1.58227H1.58224H1.58222H1.58219H1.58216H1.58214H1.58211H1.58208H1.58206H1.58203H1.582H1.58197H1.58195H1.58192H1.58189H1.58187H1.58184H1.58181H1.58178H1.58176H1.58173H1.5817H1.58168H1.58165H1.58162H1.5816H1.58157H1.58154H1.58151H1.58149H1.58146H1.58143H1.58141H1.58138H1.58135H1.58132H1.5813H1.58127H1.58124H1.58122H1.58119H1.58116H1.58114H1.58111H1.58108H1.58105H1.58103H1.581H1.58097H1.58095H1.58092H1.58089H1.58086H1.58084H1.58081H1.58078H1.58076H1.58073H1.5807H1.58067H1.58065H1.58062H1.58059H1.58057H1.58054H1.58051H1.58049H1.58046H1.58043H1.5804H1.58038H1.58035H1.58032H1.5803H1.58027H1.58024H1.58021H1.58019H1.58016H1.58013H1.58011H1.58008H1.58005H1.58002H1.58H1.57997H1.57994H1.57992H1.57989H1.57986H1.57984H1.57981H1.57978H1.57975H1.57973H1.5797H1.57967H1.57965H1.57962H1.57959H1.57956H1.57954H1.57951H1.57948H1.57946H1.57943H1.5794H1.57938H1.57935H1.57932H1.57929H1.57927H1.57924H1.57921H1.57919H1.57916H1.57913H1.5791H1.57908H1.57905H1.57902H1.579H1.57897H1.57894H1.57891H1.57889H1.57886H1.57883H1.57881H1.57878H1.57875H1.57873H1.5787H1.57867H1.57864H1.57862H1.57859H1.57856H1.57854H1.57851H1.57848H1.57845H1.57843H1.5784H1.57837H1.57835H1.57832H1.57829H1.57827H1.57824H1.57821H1.57818H1.57816H1.57813H1.5781H1.57808H1.57805H1.57802H1.57799H1.57797H1.57794H1.57791H1.57789H1.57786H1.57783H1.5778H1.57778H1.57775H1.57772H1.5777C1.21766 48.1497 0.926458 47.861 0.922559 47.5058L0.422589 47.5112M12.0298 35.1241L0.422589 47.5112M0.422589 47.5112L0.922559 47.5058C0.917974 47.0884 0.917969 46.6304 0.917969 46.1412V41.8212C0.917969 41.6771 0.948935 40.0254 2.20121 38.3739L0.422589 47.5112Z" fill="#207C97" stroke="#207C97"/>
  <path d="M26.2408 33.4738H26.0163C22.8827 33.4738 18.839 34.1366 16.61 37.0729C15.2422 38.8754 15.209 40.6735 15.209 40.8336V45.5961C15.209 46.3221 15.209 46.9425 15.2204 47.5137L26.2408 33.4738ZM26.2408 33.4738C29.3407 33.5055 33.2456 34.2044 35.4214 37.0717C36.7882 38.8743 36.8225 40.6726 36.8225 40.8325V45.5949C36.8225 46.3212 36.8225 46.941 36.8099 47.5117L36.8099 47.5126C36.8028 47.8666 36.5127 48.1508 36.1559 48.1508H36.1558H36.1558H36.1557H36.1557H36.1556H36.1556H36.1555H36.1555H36.1554H36.1554H36.1553H36.1553H36.1553H36.1552H36.1552H36.1551H36.1551H36.155H36.155H36.1549H36.1549H36.1548H36.1548H36.1547H36.1547H36.1546H36.1546H36.1545H36.1545H36.1544H36.1544H36.1544H36.1543H36.1543H36.1542H36.1542H36.1541H36.1541H36.154H36.154H36.1539H36.1539H36.1538H36.1538H36.1537H36.1537H36.1536H36.1536H36.1535H36.1535H36.1535H36.1534H36.1534H36.1533H36.1533H36.1532H36.1532H36.1531H36.1531H36.153H36.153H36.1529H36.1529H36.1528H36.1528H36.1527H36.1527H36.1526H36.1526H36.1526H36.1525H36.1525H36.1524H36.1524H36.1523H36.1523H36.1522H36.1522H36.1521H36.1521H36.152H36.152H36.1519H36.1519H36.1518H36.1518H36.1517H36.1517H36.1517H36.1516H36.1516H36.1515H36.1515H36.1514H36.1514H36.1513H36.1513H36.1512H36.1512H36.1511H36.1511H36.151H36.151H36.1509H36.1509H36.1508H36.1508H36.1508H36.1507H36.1507H36.1506H36.1506H36.1505H36.1505H36.1504H36.1504H36.1503H36.1503H36.1502H36.1502H36.1501H36.1501H36.15H36.15H36.1499H36.1499H36.1499H36.1498H36.1498H36.1497H36.1497H36.1496H36.1496H36.1495H36.1495H36.1494H36.1494H36.1493H36.1493H36.1492H36.1492H36.1491H36.1491H36.149H36.149H36.149H36.1489H36.1489H36.1488H36.1488H36.1487H36.1487H36.1486H36.1486H36.1485H36.1485H36.1484H36.1484H36.1483H36.1483H36.1482H36.1482H36.1481H36.1481H36.1481H36.148H36.148H36.1479H36.1479H36.1478H36.1478H36.1477H36.1477H36.1476H36.1476H36.1475H36.1475H36.1474H36.1474H36.1473H36.1473H36.1472H36.1472H36.1472H36.1471H36.1471H36.147H36.147H36.1469H36.1469H36.1468H36.1468H36.1467H36.1467H36.1466H36.1466H36.1465H36.1465H36.1464H36.1464H36.1463H36.1463H36.1463H36.1462H36.1462H36.1461H36.1461H36.146H36.146H36.1459H36.1459H36.1458H36.1458H36.1457H36.1457H36.1456H36.1456H36.1455H36.1455H36.1454H36.1454H36.1454H36.1453H36.1453H36.1452H36.1452H36.1451H36.1451H36.145H36.145H36.1449H36.1449H36.1448H36.1448H36.1447H36.1447H36.1446H36.1446H36.1445H36.1445H36.1445H36.1444H36.1444H36.1443H36.1443H36.1442H36.1442H36.1441H36.1441H36.144H36.144H36.1439H36.1439H36.1438H36.1438H36.1437H36.1437H36.1436H36.1436H36.1436H36.1435H36.1435H36.1434H36.1434H36.1433H36.1433H36.1432H36.1432H36.1431H36.1431H36.143H36.143H36.1429H36.1429H36.1428H36.1428H36.1427H36.1427H36.1427H36.1426H36.1426H36.1425H36.1425H36.1424H36.1424H36.1423H36.1423H36.1422H36.1422H36.1421H36.1421H36.142H36.142H36.1419H36.1419H36.1418H36.1418H36.1418H36.1417H36.1417H36.1416H36.1416H36.1415H36.1415H36.1414H36.1414H36.1413H36.1413H36.1412H36.1412H36.1411H36.1411H36.141H36.141H36.1409H36.1409H36.1409H36.1408H36.1408H36.1407H36.1407H36.1406H36.1406H36.1405H36.1405H36.1404H36.1404H36.1403H36.1403H36.1402H36.1402H36.1401H36.1401H36.14H36.14H36.1399H36.1399H36.1399H36.1398H36.1398H36.1397H36.1397H36.1396H36.1396H36.1395H36.1395H36.1394H36.1394H36.1393H36.1393H36.1392H36.1392H36.1391H36.1391H36.1391H36.139H36.139H36.1389H36.1389H36.1388H36.1388H36.1387H36.1387H36.1386H36.1386H36.1385H36.1385H36.1384H36.1384H36.1383H36.1383H36.1382H36.1382H36.1382H36.1381H36.1381H36.138H36.138H36.1379H36.1379H36.1378H36.1378C35.7764 48.1405 35.4929 47.8415 35.5006 47.4852L35.5007 47.4847C35.5123 46.9265 35.5123 46.308 35.5123 45.5991V45.5949V40.8325H35.5124L35.5123 40.8246C35.5096 40.6569 35.4528 39.135 34.2016 37.6498C32.9359 36.1471 30.5295 34.7772 26.0152 34.7772C22.2335 34.7772 19.3124 35.7597 17.7255 37.7673C16.56 39.2404 16.518 40.7654 16.518 40.8382V45.5961V45.5999C16.518 46.3077 16.518 46.9274 16.5297 47.4857M26.2408 33.4738L15.2204 47.5139C15.2277 47.8675 15.5185 48.152 15.8745 48.152H15.8745H15.8746H15.8746H15.8747H15.8747H15.8748H15.8748H15.8749H15.8749H15.875H15.875H15.8751H15.8751H15.8752H15.8752H15.8752H15.8753H15.8753H15.8754H15.8754H15.8755H15.8755H15.8756H15.8756H15.8757H15.8757H15.8758H15.8758H15.8759H15.8759H15.876H15.876H15.8761H15.8761H15.8761H15.8762H15.8762H15.8763H15.8763H15.8764H15.8764H15.8765H15.8765H15.8766H15.8766H15.8767H15.8767H15.8768H15.8768H15.8769H15.8769H15.877H15.877H15.877H15.8771H15.8771H15.8772H15.8772H15.8773H15.8773H15.8774H15.8774H15.8775H15.8775H15.8776H15.8776H15.8777H15.8777H15.8778H15.8778H15.8779H15.8779H15.8779H15.878H15.878H15.8781H15.8781H15.8782H15.8782H15.8783H15.8783H15.8784H15.8784H15.8785H15.8785H15.8786H15.8786H15.8787H15.8787H15.8788H15.8788H15.8788H15.8789H15.8789H15.879H15.879H15.8791H15.8791H15.8792H15.8792H15.8793H15.8793H15.8794H15.8794H15.8795H15.8795H15.8796H15.8796H15.8797H15.8797H15.8797H15.8798H15.8798H15.8799H15.8799H15.88H15.88H15.8801H15.8801H15.8802H15.8802H15.8803H15.8803H15.8804H15.8804H15.8805H15.8805H15.8806H15.8806H15.8806H15.8807H15.8807H15.8808H15.8808H15.8809H15.8809H15.881H15.881H15.8811H15.8811H15.8812H15.8812H15.8813H15.8813H15.8814H15.8814H15.8815H15.8815H15.8815H15.8816H15.8816H15.8817H15.8817H15.8818H15.8818H15.8819H15.8819H15.882H15.882H15.8821H15.8821H15.8822H15.8822H15.8823H15.8823H15.8824H15.8824H15.8824H15.8825H15.8825H15.8826H15.8826H15.8827H15.8827H15.8828H15.8828H15.8829H15.8829H15.883H15.883H15.8831H15.8831H15.8832H15.8832H15.8833H15.8833H15.8833H15.8834H15.8834H15.8835H15.8835H15.8836H15.8836H15.8837H15.8837H15.8838H15.8838H15.8839H15.8839H15.884H15.884H15.8841H15.8841H15.8842H15.8842H15.8842H15.8843H15.8843H15.8844H15.8844H15.8845H15.8845H15.8846H15.8846H15.8847H15.8847H15.8848H15.8848H15.8849H15.8849H15.885H15.885H15.8851H15.8851H15.8851H15.8852H15.8852H15.8853H15.8853H15.8854H15.8854H15.8855H15.8855H15.8856H15.8856H15.8857H15.8857H15.8858H15.8858H15.8859H15.8859H15.886H15.886H15.886H15.8861H15.8861H15.8862H15.8862H15.8863H15.8863H15.8864H15.8864H15.8865H15.8865H15.8866H15.8866H15.8867H15.8867H15.8868H15.8868H15.8869H15.8869H15.8869H15.887H15.887H15.8871H15.8871H15.8872H15.8872H15.8873H15.8873H15.8874H15.8874H15.8875H15.8875H15.8876H15.8876H15.8877H15.8877H15.8878H15.8878H15.8878H15.8879H15.8879H15.888H15.888H15.8881H15.8881H15.8882H15.8882H15.8883H15.8883H15.8884H15.8884H15.8885H15.8885H15.8886H15.8886H15.8887H15.8887H15.8887H15.8888H15.8888H15.8889H15.8889H15.889H15.889H15.8891H15.8891H15.8892H15.8892H15.8893H15.8893H15.8894H15.8894H15.8895H15.8895H15.8896H15.8896H15.8896H15.8897H15.8897H15.8898H15.8898H15.8899H15.8899H15.89H15.89H15.8901H15.8901H15.8902H15.8902H15.8903H15.8903H15.8904H15.8904H15.8905H15.8905H15.8905H15.8906H15.8906H15.8907H15.8907H15.8908H15.8908H15.8909H15.8909H15.891H15.891H15.8911H15.8911H15.8912H15.8912H15.8913H15.8913H15.8914H15.8914H15.8914H15.8915H15.8915H15.8916H15.8916H15.8917H15.8917H15.8918H15.8918H15.8919H15.8919H15.892H15.892H15.8921H15.8921H15.8922H15.8922H15.8923H15.8923H15.8923H15.8924H15.8924H15.8925H15.8925H15.8926M16.5297 47.4857C16.5297 47.4856 16.5297 47.4855 16.5297 47.4854L17.0296 47.4755L16.5297 47.4859C16.5297 47.4858 16.5297 47.4857 16.5297 47.4857ZM16.5297 47.4857C16.5367 47.8434 16.2531 48.1416 15.8926 48.152M15.8926 48.152C15.891 48.152 15.8895 48.152 15.8879 48.1521L15.8987 48.652V48.152H15.8987H15.8986H15.8986H15.8986H15.8985H15.8985H15.8984H15.8984H15.8983H15.8983H15.8982H15.8982H15.8981H15.8981H15.898H15.898H15.8979H15.8979H15.8978H15.8978H15.8977H15.8977H15.8977H15.8976H15.8976H15.8975H15.8975H15.8974H15.8974H15.8973H15.8973H15.8972H15.8972H15.8971H15.8971H15.897H15.897H15.8969H15.8969H15.8968H15.8968H15.8968H15.8967H15.8967H15.8966H15.8966H15.8965H15.8965H15.8964H15.8964H15.8963H15.8963H15.8962H15.8962H15.8961H15.8961H15.896H15.896H15.8959H15.8959H15.8959H15.8958H15.8958H15.8957H15.8957H15.8956H15.8956H15.8955H15.8955H15.8954H15.8954H15.8953H15.8953H15.8952H15.8952H15.8951H15.8951H15.895H15.895H15.895H15.8949H15.8949H15.8948H15.8948H15.8947H15.8947H15.8946H15.8946H15.8945H15.8945H15.8944H15.8944H15.8943H15.8943H15.8942H15.8942H15.8941H15.8941H15.8941H15.894H15.894H15.8939H15.8939H15.8938H15.8938H15.8937H15.8937H15.8936H15.8936H15.8935H15.8935H15.8934H15.8934H15.8933H15.8933H15.8932H15.8932H15.8932H15.8931H15.8931H15.893H15.893H15.8929H15.8929H15.8928H15.8928H15.8927H15.8927H15.8926H15.8926H15.8926ZM36.1316 48.6508H36.1559C36.7831 48.6508 37.2971 48.1507 37.3098 47.5227C37.3225 46.9454 37.3225 46.3197 37.3225 45.5949V40.8325C37.3225 40.6193 37.2798 38.695 35.8197 36.7695L36.1316 48.6508Z" fill="#207C97" stroke="#207C97"/>
  <path d="M17.1337 11.2697L17.4868 11.622L21.5955 15.7207C21.7188 15.8437 21.8852 15.9123 22.0591 15.9123C22.2338 15.9123 22.4005 15.8432 22.5217 15.7216L22.5226 15.7207L29.5284 8.73202L29.8815 8.37976L30.2346 8.73202L33.8531 12.3417L17.1337 11.2697ZM17.1337 11.2697L16.7806 11.622M17.1337 11.2697L16.7806 11.622M16.7806 11.622L7.61942 20.7608C7.49158 20.8884 7.32447 20.9524 7.15588 20.9524C6.9873 20.9524 6.82019 20.8884 6.69235 20.7608L6.69189 20.7604C6.43694 20.5067 6.43628 20.0949 6.69235 19.8395L16.6702 9.88593C16.9252 9.63155 17.3406 9.63082 17.5974 9.88612C17.5975 9.88621 17.5976 9.88629 17.5977 9.88638L21.706 13.9846L22.0591 14.3369L22.4122 13.9846L29.4179 6.99597L29.4189 6.99502C29.5401 6.87349 29.7068 6.80436 29.8815 6.80436C30.0554 6.80436 30.2217 6.87299 30.345 6.99596L33.964 10.6061L34.3171 10.9584L34.6702 10.6061L41.9832 3.31092L42.8393 2.45694H41.6301H37.1506C36.7879 2.45694 36.4955 2.16342 36.4955 1.80464C36.4955 1.44586 36.7879 1.15234 37.1506 1.15234H44.4185C44.7811 1.15234 45.0736 1.44586 45.0736 1.80464V9.05489C45.0736 9.41367 44.7811 9.70719 44.4185 9.70719C44.0559 9.70719 43.7634 9.41367 43.7634 9.05489V4.58628V3.38125M16.7806 11.622L43.7634 3.38125M43.7634 3.38125L42.9103 4.2323M43.7634 3.38125L42.9103 4.2323M42.9103 4.2323L34.7806 12.3422C34.5257 12.5965 34.1104 12.5973 33.8536 12.3422L42.9103 4.2323Z" fill="#207C97" stroke="#207C97"/>
</svg>