<svg xmlns="http://www.w3.org/2000/svg" width="49" height="49" viewBox="0 0 49 49" fill="none">
  <path d="M47.922 47.4621H45.3302V9.99949C45.3302 9.13728 44.628 8.44027 43.7709 8.44027H38.4376C37.5754 8.44027 36.8784 9.14244 36.8784 9.99949V47.4621H34.2659V18.2912C34.2659 17.429 33.5637 16.732 32.7067 16.732H27.3681C26.5059 16.732 25.8089 17.4342 25.8089 18.2912V47.4621H23.1965V26.5881C23.1965 25.7259 22.4943 25.0289 21.6372 25.0289H16.3039C15.4417 25.0289 14.7447 25.7311 14.7447 26.5881V47.4621H12.1322V34.8851C12.1322 34.0228 11.43 33.3258 10.573 33.3258H5.23445C4.37224 33.3258 3.67523 34.028 3.67523 34.8851V47.4621H1.08342C0.758149 47.4621 0.5 47.7254 0.5 48.0455C0.5 48.3708 0.763312 48.6289 1.08342 48.6289H47.9168C48.2421 48.6289 48.5002 48.3656 48.5002 48.0455C48.5054 47.7254 48.2421 47.4621 47.922 47.4621ZM38.0452 9.99949C38.0452 9.78265 38.2207 9.60711 38.4376 9.60711H43.7709C43.9878 9.60711 44.1633 9.78265 44.1633 9.99949V47.4621H38.0452V9.99949ZM26.9809 18.2964C26.9809 18.0796 27.1565 17.904 27.3733 17.904H32.7067C32.9235 17.904 33.0991 18.0796 33.0991 18.2964V47.4672H26.9809V18.2964ZM15.9115 26.5881C15.9115 26.3713 16.087 26.1958 16.3039 26.1958H21.6372C21.8541 26.1958 22.0296 26.3713 22.0296 26.5881V47.4621H15.9115V26.5881ZM4.84723 34.8851C4.84723 34.6682 5.02277 34.4927 5.23962 34.4927H10.573C10.7898 34.4927 10.9654 34.6682 10.9654 34.8851V47.4621H4.84723V34.8851ZM6.49422 25.2509C6.37547 24.9515 6.52003 24.6107 6.82465 24.492C18.4001 19.9021 28.0393 14.2899 37.2604 1.98139L35.3191 2.2447C34.999 2.286 34.7047 2.06399 34.6583 1.74389C34.617 1.42378 34.839 1.12949 35.1591 1.08303L38.515 0.633848C38.8351 0.592544 39.1294 0.814553 39.1759 1.13466L39.6251 4.49059C39.6664 4.8107 39.4444 5.10499 39.1243 5.15146C38.8041 5.19276 38.5099 4.97075 38.4634 4.65065L38.2001 2.68871C28.8086 15.2089 19.0144 20.9192 7.25318 25.5814C7.1809 25.6072 7.10861 25.6227 7.03633 25.6227C6.804 25.6227 6.58199 25.4833 6.49422 25.2509Z" fill="#207C97" stroke="#207C97" stroke-width="0.5"/>
</svg>