<svg xmlns="http://www.w3.org/2000/svg" width="51" height="49" viewBox="0 0 51 49" fill="none">
  <path fill-rule="evenodd" clip-rule="evenodd" d="M31.7297 48.4555H2.89063C1.57562 48.4555 0.505371 47.3757 0.505371 46.049V2.86581C0.505371 2.22376 0.754577 1.61987 1.20628 1.16419C1.65799 0.708518 2.25654 0.457031 2.89285 0.457031H25.486C25.6307 0.457031 25.7709 0.515397 25.8732 0.618664L33.9566 8.77416C34.059 8.87743 34.1168 9.01885 34.1168 9.16477V15.1675C34.1168 15.4728 33.8721 15.722 33.5672 15.722C33.2646 15.722 33.0176 15.4728 33.0176 15.1675V9.3935L25.2566 1.56328H2.89015C2.5475 1.56328 2.22484 1.69798 1.98008 1.94492C1.73532 2.19185 1.60182 2.51736 1.60182 2.86311V46.0463C1.60182 46.7624 2.18032 47.346 2.89012 47.346H31.7291C32.4389 47.346 33.0174 46.7624 33.0174 46.0463V37.4661C33.0174 37.1608 33.2622 36.9116 33.567 36.9116C33.8696 36.9116 34.1166 37.1608 34.1166 37.4661V46.0463C34.1166 47.373 33.0464 48.4528 31.7313 48.4528L31.7297 48.4555Z" fill="#207C97" stroke="#207C97" stroke-width="0.4"/>
  <path fill-rule="evenodd" clip-rule="evenodd" d="M33.5651 9.72173H25.4817C25.1791 9.72173 24.9321 9.47255 24.9321 9.16724V1.01347C24.9321 0.705919 25.1769 0.458984 25.4817 0.458984C25.7843 0.458984 26.0313 0.705925 26.0313 1.01347V8.61496H33.5656C33.8682 8.61496 34.1152 8.86415 34.1152 9.16945C34.1152 9.47476 33.8682 9.72394 33.5656 9.72394L33.5651 9.72173Z" fill="#207C97" stroke="#207C97" stroke-width="0.4"/>
  <path fill-rule="evenodd" clip-rule="evenodd" d="M19.2381 19.8218H6.37967C6.07706 19.8218 5.83008 19.5749 5.83008 19.2673V14.2635C5.83008 13.9582 6.07484 13.709 6.37967 13.709H28.2386C28.5412 13.709 28.7882 13.9582 28.7882 14.2635C28.7882 14.5688 28.5435 14.818 28.2386 14.818H6.92934V18.7151H19.2404C19.543 18.7151 19.79 18.9643 19.79 19.2696C19.79 19.5749 19.5453 19.8241 19.2404 19.8241L19.2381 19.8218Z" fill="#207C97" stroke="#207C97" stroke-width="0.4"/>
  <path fill-rule="evenodd" clip-rule="evenodd" d="M25.2992 42.7281H9.31863C9.01602 42.7281 8.76904 42.4789 8.76904 42.1736C8.76904 41.8683 9.0138 41.6191 9.31863 41.6191H25.2992C25.6018 41.6191 25.8488 41.8683 25.8488 42.1736C25.8488 42.4789 25.604 42.7281 25.2992 42.7281Z" fill="#207C97" stroke="#207C97" stroke-width="0.4"/>
  <path fill-rule="evenodd" clip-rule="evenodd" d="M22.4374 37.0016H9.31863C9.01602 37.0016 8.76904 36.7546 8.76904 36.4471C8.76904 36.1395 9.01602 35.8926 9.31863 35.8926H22.4374C22.74 35.8926 22.987 36.1395 22.987 36.4471C22.987 36.7524 22.7423 37.0016 22.4374 37.0016Z" fill="#207C97" stroke="#207C97" stroke-width="0.4"/>
  <path fill-rule="evenodd" clip-rule="evenodd" d="M17.807 31.275H9.31863C9.01602 31.275 8.76904 31.0258 8.76904 30.7205C8.76904 30.4152 9.01602 30.166 9.31863 30.166H17.807C18.1096 30.166 18.3566 30.4152 18.3566 30.7205C18.3566 31.0258 18.1119 31.275 17.807 31.275Z" fill="#207C97" stroke="#207C97" stroke-width="0.4"/>
  <path fill-rule="evenodd" clip-rule="evenodd" d="M17.0597 25.5484H9.31863C9.01602 25.5484 8.76904 25.3015 8.76904 24.9939C8.76904 24.6886 9.0138 24.4395 9.31863 24.4395H17.0597C17.3623 24.4395 17.6093 24.6886 17.6093 24.9939C17.6093 25.2992 17.3645 25.5484 17.0597 25.5484Z" fill="#207C97" stroke="#207C97" stroke-width="0.4"/>
  <path fill-rule="evenodd" clip-rule="evenodd" d="M28.9571 18.9246C24.8564 18.9246 21.5208 22.2898 21.5208 26.4273C21.5208 30.5646 24.8562 33.9299 28.9571 33.9299C33.0581 33.9299 36.3935 30.5648 36.3935 26.4273C36.3935 22.2899 33.0581 18.9246 28.9571 18.9246ZM28.9571 35.0362C24.2512 35.0362 20.4243 31.1727 20.4243 26.4273C20.4243 21.6793 24.2537 17.8184 28.9571 17.8184C33.6631 17.8184 37.49 21.6796 37.49 26.4273C37.49 31.173 33.6606 35.0362 28.9571 35.0362Z" fill="#207C97" stroke="#207C97" stroke-width="0.4"/>
  <path fill-rule="evenodd" clip-rule="evenodd" d="M28.9569 14.7949C22.6598 14.7949 17.5356 19.9649 17.5356 26.3181C17.5356 32.6714 22.6599 37.8414 28.9569 37.8414C35.2539 37.8414 40.3782 32.6736 40.3782 26.3181C40.3782 19.9626 35.2539 14.7949 28.9569 14.7949ZM28.9569 38.9476C22.0549 38.9476 16.4385 33.2815 16.4385 26.3176C16.4385 19.354 22.0545 13.6875 28.9569 13.6875C35.8593 13.6875 41.4753 19.3536 41.4753 26.3176C41.4753 33.2811 35.8593 38.9476 28.9569 38.9476Z" fill="#207C97" stroke="#207C97" stroke-width="0.4"/>
  <path fill-rule="evenodd" clip-rule="evenodd" d="M41.8402 36.6635C41.7 36.6635 41.5599 36.6096 41.4531 36.5018L38.4737 33.4959C38.2601 33.2781 38.2601 32.9279 38.4737 32.7124C38.6873 32.4969 39.0366 32.4969 39.2502 32.7124L42.2296 35.7184C42.4432 35.9339 42.4432 36.2841 42.2296 36.5018C42.1228 36.6096 41.9826 36.6635 41.8425 36.6635H41.8402ZM38.5516 39.9814C38.4114 39.9814 38.2713 39.9275 38.1645 39.8198L35.1651 36.7914C34.9515 36.5759 34.9515 36.2257 35.1651 36.0079C35.3787 35.7924 35.728 35.7924 35.9416 36.0079L38.941 39.0363C39.1546 39.2518 39.1546 39.602 38.941 39.8198C38.8342 39.9275 38.694 39.9814 38.5538 39.9814H38.5516Z" fill="#207C97" stroke="#207C97" stroke-width="0.4"/>
  <path fill-rule="evenodd" clip-rule="evenodd" d="M42.5653 36.4877C42.2872 36.4877 42.0269 36.5954 41.831 36.793L39.2277 39.4195C39.0319 39.6148 38.9251 39.8797 38.9251 40.1603C38.9251 40.441 39.0319 40.7036 39.2277 40.8989L44.7815 46.5022C45.3222 47.05 46.0453 47.3486 46.8174 47.3486C47.5894 47.3486 48.3126 47.0477 48.8533 46.5022C49.394 45.9567 49.6922 45.2271 49.6922 44.4504C49.6922 43.6714 49.394 42.9418 48.8533 42.3963L43.2996 36.793C43.1038 36.5977 42.8435 36.4877 42.5653 36.4877ZM46.8174 48.4574C45.7538 48.4574 44.7548 48.0421 44.0049 47.2855L38.4512 41.6823C38.0484 41.2782 37.8281 40.7372 37.8281 40.1603C37.8281 39.5833 38.0506 39.0423 38.4512 38.636L41.0545 36.0095C41.4572 35.6031 41.9934 35.3809 42.5653 35.3809C43.1371 35.3809 43.6733 35.6031 44.0761 36.0095L49.6298 41.6127C50.3774 42.367 50.7913 43.375 50.7913 44.4503C50.7913 45.5256 50.3774 46.5313 49.6298 47.2856C48.88 48.0421 47.8832 48.4574 46.8174 48.4574Z" fill="#207C97"/>
  <path d="M38.8406 39.0267H38.8428M42.5653 36.4877C42.2872 36.4877 42.0269 36.5954 41.831 36.793L39.2277 39.4195C39.0319 39.6148 38.9251 39.8797 38.9251 40.1603C38.9251 40.441 39.0319 40.7036 39.2277 40.8989L44.7815 46.5022C45.3222 47.05 46.0453 47.3486 46.8174 47.3486C47.5894 47.3486 48.3126 47.0477 48.8533 46.5022C49.394 45.9567 49.6922 45.2271 49.6922 44.4504C49.6922 43.6714 49.394 42.9418 48.8533 42.3963L43.2996 36.793C43.1038 36.5977 42.8435 36.4877 42.5653 36.4877ZM46.8174 48.4574C45.7538 48.4574 44.7548 48.0421 44.0049 47.2855L38.4512 41.6823C38.0484 41.2782 37.8281 40.7372 37.8281 40.1603C37.8281 39.5833 38.0506 39.0423 38.4512 38.636L41.0545 36.0095C41.4572 35.6031 41.9934 35.3809 42.5653 35.3809C43.1371 35.3809 43.6733 35.6031 44.0761 36.0095L49.6298 41.6127C50.3774 42.367 50.7913 43.375 50.7913 44.4503C50.7913 45.5256 50.3774 46.5313 49.6298 47.2856C48.88 48.0421 47.8832 48.4574 46.8174 48.4574Z" stroke="#207C97" stroke-width="0.4"/>
</svg>

