<svg width="12" height="13" viewBox="0 0 12 13" fill="none" xmlns="http://www.w3.org/2000/svg">
<path id="Vector" d="M11.3553 0.970799C11.3539 0.972372 11.3529 0.973428 11.3516 0.974747L11.3518 0.974738C11.4244 0.914659 11.4832 0.82323 11.5628 0.777163C11.5772 0.772587 11.5842 0.776417 11.5838 0.788907C11.5357 0.866464 11.4784 0.938997 11.4175 1.00962C11.3566 1.08024 11.2901 1.148 11.2205 1.21409L11.1955 1.25112C11.1875 1.26591 11.1764 1.27954 11.1623 1.292L11.1609 1.29129C11.1518 1.30485 11.1409 1.31592 11.1278 1.32402C11.0806 1.41046 11.0293 1.49679 10.9499 1.5818C10.9435 1.59552 10.9363 1.60952 10.9281 1.62356L10.926 1.62669L10.9286 1.62481L10.9301 1.62756C10.9351 1.61364 10.9451 1.60081 10.9603 1.58959L11.0073 1.56681L11.0069 1.57166L11.0072 1.57165L11.007 1.56708C11.0866 1.49631 11.1415 1.38821 11.2353 1.33936C11.2459 1.32906 11.2569 1.31951 11.2681 1.31046C11.272 1.31262 11.2759 1.31477 11.2804 1.31665C11.2792 1.32357 11.2762 1.33029 11.2714 1.33657C11.275 1.34307 11.2753 1.35222 11.2724 1.36404C11.2623 1.37992 11.2507 1.39535 11.237 1.4106C11.2169 1.43294 11.1997 1.45723 11.1773 1.47812L11.1501 1.49944C11.1524 1.50343 11.1561 1.50611 11.1613 1.50669C11.1704 1.49822 11.1794 1.49052 11.1888 1.48332C11.1927 1.48497 11.1968 1.48635 11.2012 1.48722L11.1446 1.56202C11.1371 1.57628 11.1272 1.59038 11.1142 1.60382L11.0946 1.62309L11.0855 1.62341L11.0856 1.62493C11.0744 1.65665 11.05 1.68933 11.0232 1.72235C11.0102 1.73782 10.9973 1.75355 10.9839 1.76879L10.925 1.83577C10.9127 1.85072 10.8997 1.86517 10.8868 1.87963L10.8546 1.91691C10.8653 1.90992 10.8713 1.90843 10.8726 1.91323C10.8739 1.91828 10.8734 1.92211 10.8708 1.92526L10.8689 1.92634C10.8658 1.93791 10.8591 1.95037 10.8483 1.96347C10.8372 1.97685 10.8257 1.98616 10.8141 1.99166L10.7859 2.02396C10.7901 2.02534 10.7921 2.02858 10.7923 2.03367C10.8048 2.02152 10.8172 2.00988 10.8294 1.99698C10.84 1.98439 10.8499 1.97207 10.8599 1.95925C10.8751 1.93809 10.8908 1.91743 10.9094 1.89743C10.9232 1.88396 10.937 1.87177 10.9514 1.86031C11.0514 1.78349 11.1288 1.66824 11.2264 1.58666C11.2382 1.58014 11.2504 1.5736 11.2625 1.56681L11.2763 1.54621C11.3306 1.52318 11.3737 1.4677 11.4195 1.4195C11.4208 1.41717 11.4218 1.41509 11.4231 1.41276L11.4423 1.38866L11.4777 1.35814C11.504 1.34016 11.5126 1.35896 11.5404 1.33736L11.7209 1.14136C11.7293 1.13649 11.7369 1.13342 11.7437 1.13166C11.7561 1.11161 11.7734 1.09472 11.7948 1.08073L11.8556 1.01418C11.9059 0.976524 11.9451 0.897493 12.0029 0.887071C11.9549 0.996965 11.8438 1.07749 11.7621 1.17175C11.6749 1.22929 11.6126 1.32415 11.5359 1.3971C11.4542 1.47125 11.3824 1.55269 11.3183 1.64023C11.3113 1.65168 11.3029 1.66292 11.2931 1.67396L11.2783 1.69052C11.2783 1.69052 11.2736 1.7057 11.2734 1.70597C11.2675 1.71763 11.2608 1.72958 11.2535 1.74155L11.2524 1.74311L11.2494 1.75748L11.2294 1.78237L11.2286 1.78239L11.22 1.7967C11.2156 1.80373 11.2109 1.81051 11.2062 1.81755C11.2062 1.81755 11.2062 1.8178 11.2062 1.81806C11.2061 1.82366 11.2046 1.82804 11.2017 1.8312C11.1922 1.84197 11.183 1.85273 11.1741 1.86374L11.1708 1.86335L11.165 1.87042C11.1518 1.88667 11.1384 1.90267 11.1266 1.91887C11.1209 1.92747 11.1162 1.93604 11.1143 1.94349C11.1166 1.94647 11.1204 1.94659 11.1261 1.94308C11.1295 1.93201 11.136 1.92033 11.1454 1.90777C11.1579 1.89486 11.1704 1.88526 11.1831 1.8787L11.1916 1.88554C11.1988 1.87968 11.2063 1.87433 11.214 1.86947C11.2412 1.85299 11.2676 1.83934 11.2947 1.8221C11.3361 1.7906 11.3743 1.74369 11.4141 1.70538C11.4086 1.70557 11.4036 1.70269 11.3987 1.69599C11.4556 1.6362 11.5075 1.57532 11.5354 1.51043C11.5461 1.50242 11.5562 1.4929 11.5654 1.48163C11.5818 1.46934 11.5958 1.46325 11.6071 1.46337C11.6009 1.52902 11.5102 1.58082 11.4761 1.64185C11.4696 1.65125 11.4628 1.66065 11.4567 1.66901C11.4704 1.65937 11.4844 1.65175 11.4988 1.64641C11.5059 1.65431 11.5031 1.66841 11.4904 1.68872C11.3904 1.81214 11.2694 1.92254 11.1801 2.05246C11.1288 2.12428 11.0459 2.17734 11.0086 2.25732L10.9952 2.28045C10.9832 2.29182 10.9725 2.29881 10.9622 2.30248L10.9437 2.324C10.9362 2.3291 10.9316 2.33054 10.9296 2.32857C10.9273 2.33323 10.925 2.33815 10.9219 2.34335C10.9084 2.36445 10.8929 2.38485 10.8774 2.40551L10.8662 2.42169C10.8771 2.41902 10.8776 2.42587 10.868 2.44225L10.8684 2.43892L10.8418 2.47729L10.8396 2.46972C10.8351 2.47345 10.8316 2.47611 10.8287 2.478C10.8211 2.48947 10.8133 2.50069 10.8046 2.5122C10.7933 2.52659 10.7815 2.54076 10.7696 2.55467L10.7332 2.59668C10.7012 2.64006 10.6506 2.66857 10.6274 2.71903C10.5478 2.85829 10.4283 2.98087 10.3231 3.10956C10.2754 3.1759 10.2243 3.23701 10.1605 3.28024L10.1553 3.27915L10.1454 3.31743C10.079 3.37373 10.0099 3.4286 9.97642 3.50794C9.98038 3.50373 9.98435 3.49951 9.98859 3.49504C10.0353 3.45063 10.0788 3.39029 10.1298 3.36687C10.144 3.39616 10.1163 3.4422 10.0782 3.49242L9.9908 3.59783C9.79756 3.83145 9.60264 4.06411 9.41332 4.3004L9.04185 4.7577C9.04577 4.79907 8.99849 4.83586 8.96744 4.87412L8.77063 5.12339L8.69241 5.23281C8.68376 5.25221 8.68854 5.26351 8.68097 5.28236C8.67319 5.29536 8.66459 5.30839 8.65488 5.32095C8.64573 5.334 8.63822 5.34674 8.63262 5.35942C8.58649 5.39769 8.54607 5.44239 8.50848 5.48954C8.47117 5.53693 8.4367 5.58702 8.40081 5.63589C8.39426 5.65267 8.38557 5.6629 8.37475 5.66735C8.37103 5.67869 8.3654 5.6906 8.35762 5.70335C8.35247 5.7132 8.34677 5.72282 8.3408 5.73245C8.34477 5.72824 8.35015 5.72525 8.35722 5.72322L8.35659 5.72095C8.36695 5.72695 8.36518 5.73924 8.34402 5.76188C8.34011 5.75998 8.33645 5.7573 8.33333 5.75436C8.33316 5.74927 8.3341 5.74491 8.33561 5.74104C8.32183 5.76291 8.3064 5.78458 8.29097 5.80625C8.27479 5.83024 8.25695 5.85353 8.23881 5.87631C8.22779 5.8907 8.2165 5.90536 8.20548 5.91975C8.18451 5.94798 8.16549 5.97691 8.14564 6.00561C8.13516 6.01972 8.1238 6.03234 8.11131 6.04398C8.05715 6.11946 7.97441 6.18601 7.95466 6.27251C7.95447 6.28295 7.94883 6.29435 7.93775 6.30696C7.92211 6.32279 7.90679 6.33962 7.89233 6.35769L7.87814 6.37576C7.79553 6.48508 7.71597 6.59556 7.63836 6.70674C7.56075 6.81793 7.48397 6.92933 7.41109 7.04264C7.26478 7.26877 7.1179 7.49441 6.96853 7.71937C6.95968 7.7487 6.94131 7.77277 6.91733 7.79321C6.84862 7.9158 6.76821 8.03319 6.68584 8.14963L6.56216 8.32429C6.52251 8.38323 6.48341 8.44239 6.44627 8.50225C6.40607 8.63199 6.29778 8.75239 6.22844 8.8806C6.16416 8.99641 6.09721 9.11409 6.02638 9.23115C5.95639 9.34843 5.88532 9.466 5.82196 9.58458C5.79413 9.63622 5.7588 9.70901 5.71872 9.68494C5.70845 9.68938 5.69919 9.69123 5.69068 9.69127C5.69013 9.69129 5.68957 9.6908 5.68901 9.69056C5.68479 9.6953 5.68027 9.69953 5.67574 9.7035C5.67242 9.7026 5.66935 9.70118 5.66628 9.69976L5.67875 9.67946C5.67812 9.67719 5.67748 9.67467 5.67711 9.67188C5.67911 9.65832 5.68382 9.64389 5.69013 9.6284C5.69701 9.61313 5.70498 9.59783 5.71351 9.58277C5.7215 9.56797 5.73087 9.55339 5.74025 9.53905L5.76702 9.49636L5.79241 9.45346C5.80373 9.43193 5.81532 9.41014 5.82663 9.38835C5.8349 9.37381 5.84373 9.35949 5.85339 9.34541L5.86485 9.32769C5.86942 9.31709 5.87536 9.3067 5.88268 9.29626L5.88454 9.29441C5.89126 9.28246 5.89742 9.27053 5.90331 9.25836C5.91097 9.24205 5.91947 9.22622 5.92852 9.21012C5.958 9.15867 5.98313 9.10814 5.99842 9.05898C6.00364 9.04352 6.01022 9.0275 6.01733 9.01121C6.0242 8.99569 6.03188 8.97989 6.03956 8.96409L6.03153 8.97787L6.00583 9.01976C5.99782 9.03404 5.9901 9.04857 5.98347 9.06306C5.97382 9.0853 5.96417 9.10753 5.95425 9.12978C5.93613 9.16886 5.91829 9.20793 5.90043 9.24649C5.88941 9.26878 5.87813 9.29158 5.86711 9.31386C5.86485 9.32005 5.86177 9.32602 5.85758 9.33176L5.85295 9.34058C5.84827 9.34788 5.84359 9.35542 5.83918 9.36271C5.83448 9.36949 5.82951 9.37654 5.82454 9.38359C5.80923 9.40093 5.79377 9.41394 5.77831 9.42696C5.76401 9.44172 5.75362 9.45838 5.74769 9.47717C5.74509 9.48923 5.74194 9.50106 5.73853 9.5134C5.7346 9.52678 5.72958 9.54019 5.7235 9.55441C5.71025 9.58364 5.6929 9.61328 5.68048 9.64274C5.6747 9.65796 5.66672 9.67301 5.6568 9.68736C5.63965 9.70706 5.62338 9.72036 5.60739 9.72626C5.60086 9.72776 5.59668 9.72587 5.5938 9.7219C5.58962 9.7358 5.58408 9.75025 5.57774 9.76498C5.56963 9.78411 5.56043 9.80353 5.55122 9.82269C5.53852 9.85191 5.52499 9.8809 5.51037 9.91018C5.49725 9.93508 5.48327 9.95925 5.46758 9.98144C5.45974 9.99267 5.45161 10.0034 5.44318 10.0134C5.43896 10.0183 5.43447 10.0233 5.42998 10.0283C5.42761 10.0312 5.42601 10.0323 5.42258 10.0362C5.41915 10.0402 5.41573 10.0444 5.41231 10.0486C5.40296 10.0715 5.3874 10.0976 5.36969 10.1247C5.35346 10.1471 5.34297 10.1531 5.33575 10.1508C5.33224 10.1759 5.34729 10.1748 5.33986 10.2056C5.33189 10.2288 5.32239 10.2551 5.31018 10.2828C5.28492 10.3374 5.25634 10.3911 5.22719 10.4443C5.21354 10.4698 5.19931 10.4945 5.18506 10.5186C5.17159 10.5415 5.15781 10.5634 5.14399 10.584C5.12521 10.6119 5.10634 10.6372 5.08757 10.6657C5.08757 10.6657 5.08371 10.6729 5.07958 10.6802C5.07544 10.6875 5.0713 10.6947 5.0713 10.6947C5.0713 10.6947 5.06745 10.7023 5.06332 10.7098C5.05947 10.7173 5.05562 10.7251 5.05562 10.7251L5.05131 10.7352L5.06079 10.7473L5.06508 10.7444C5.05538 10.773 5.04455 10.7929 5.03286 10.8041C5.02636 10.8221 5.01767 10.8405 5.00679 10.8589L5.00411 10.8608C5.00136 10.8683 4.99833 10.876 4.99558 10.8835C4.98597 10.907 4.97498 10.9301 4.96315 10.9529C4.95103 10.975 4.93856 10.995 4.92603 11.0135C4.90802 11.0399 4.89046 11.0637 4.87266 11.0882C4.86037 11.1054 4.8478 11.1227 4.8355 11.1397C4.82312 11.1623 4.81267 11.1853 4.8031 11.2098C4.79273 11.2351 4.78179 11.2597 4.7703 11.2843C4.75294 11.3213 4.73471 11.3573 4.71647 11.3928C4.70414 11.417 4.69207 11.4406 4.68002 11.4647C4.66923 11.4857 4.65843 11.5067 4.64764 11.5277C4.64741 11.5289 4.64717 11.5297 4.64717 11.5297L4.68369 11.4676L4.68532 11.4907L4.66953 11.5259L4.65221 11.5563L4.65774 11.5574L4.61791 11.627L4.6143 11.5943C4.60638 11.6111 4.59819 11.6279 4.59 11.645C4.57327 11.6846 4.55602 11.7249 4.53904 11.7649C4.51543 11.8198 4.49009 11.8718 4.46442 11.9226L4.48391 11.8914C4.49397 11.8651 4.50449 11.8443 4.51602 11.8286L4.54907 11.7536C4.55104 11.763 4.5525 11.7731 4.5537 11.784L4.51927 11.8509L4.48433 11.9191L4.48942 11.9235C4.47789 11.9547 4.46579 11.9776 4.45337 11.991L4.42477 12.0444L4.41153 12.0345C4.40927 12.0325 4.40704 12.0316 4.40476 12.0291L4.39758 12.0199L4.36886 11.9833C4.36911 11.9748 4.36966 11.9669 4.37078 11.9598C4.38187 11.9708 4.39303 11.9839 4.40377 11.993C4.39175 11.9789 4.37903 11.9602 4.36691 11.9433C4.35678 11.9282 4.34748 11.9132 4.33901 11.8985C4.3326 11.9035 4.32182 11.9014 4.30638 11.8915C4.28837 11.8786 4.268 11.861 4.24614 11.8399C4.25303 11.8567 4.25564 11.8685 4.25368 11.8752L4.24671 11.8798L4.22954 11.8674L4.03616 11.6336C3.99492 11.592 3.95917 11.5504 3.94691 11.5137C3.88901 11.4663 3.82617 11.3957 3.76224 11.3014C3.73152 11.2546 3.7244 11.2235 3.69959 11.1811C3.55429 11.0431 3.39948 10.8687 3.24334 10.6878C3.16467 10.5958 3.08601 10.5041 3.00734 10.4121C2.9676 10.3662 2.92786 10.3204 2.88811 10.2745C2.86417 10.2488 2.84023 10.2234 2.81578 10.1988C2.7455 10.1272 2.67725 10.0506 2.60797 9.97614C2.59259 9.96777 2.58338 9.95561 2.57898 9.93972L2.13365 9.47632L1.9761 9.30969C1.93109 9.22316 1.84945 9.17967 1.79497 9.10442L1.73789 9.03359C1.67573 8.9665 1.60028 8.91974 1.55139 8.83182L1.52299 8.7964L1.49401 8.76023L1.19096 8.47392C1.07781 8.40021 1.02614 8.34269 1.0062 8.21174C0.982994 8.05799 1.01658 7.98247 1.1195 7.96741C1.0769 7.91059 1.04951 7.85706 1.03733 7.80681C0.975164 7.72377 0.973841 7.68588 1.03336 7.69313C1.05981 7.69628 1.0525 7.66751 1.03971 7.63918C0.942793 7.42537 1.1302 7.51966 1.16448 7.44844C1.17114 7.43471 1.19629 7.45573 1.21782 7.48299C1.24224 7.51422 1.26212 7.54153 1.24476 7.55487C1.21724 7.5762 1.22638 7.63368 1.2733 7.68857C1.32394 7.74817 1.34088 7.69894 1.38111 7.71154C1.45435 7.73445 1.50269 7.6966 1.52547 7.66525C1.57758 7.59392 1.67295 7.66112 1.78257 7.73572C1.79004 7.7375 1.7984 7.74128 1.80711 7.74708C1.81643 7.75465 1.82249 7.75546 1.82333 7.74805C1.82219 7.74681 1.81021 7.73374 1.81021 7.73374L1.79929 7.7196C1.72233 7.63725 1.64634 7.49629 1.56824 7.53848C1.5537 7.54637 1.5129 7.49382 1.50159 7.4685C1.47598 7.41108 1.44395 7.34243 1.4854 7.33487C1.52221 7.32824 1.51035 7.24004 1.6005 7.32296C1.73628 7.44757 1.83735 7.46594 1.94695 7.50845C1.9765 7.52193 2.00575 7.53441 2.03833 7.57172C2.04687 7.58059 2.05489 7.58998 2.0629 7.59938C2.07492 7.60583 2.08377 7.61571 2.08922 7.63029L2.08926 7.63131L2.08983 7.63205L2.11015 7.64815L2.11568 7.65712C2.11521 7.65153 2.11706 7.64969 2.12178 7.6513C2.12763 7.65365 2.13185 7.65656 2.13499 7.66026C2.14293 7.66763 2.15008 7.67578 2.15669 7.68446L2.16055 7.68484L2.16686 7.69276C2.16987 7.69266 2.17288 7.6923 2.17559 7.69144C2.18267 7.68966 2.19062 7.68964 2.19945 7.69086C2.20443 7.69221 2.20944 7.69433 2.21474 7.69669L2.19347 7.66892L2.1889 7.6482L2.19589 7.65177C2.18706 7.64266 2.18066 7.63219 2.17614 7.62063L2.18032 7.62252L2.1814 7.62198C2.17583 7.61963 2.1694 7.61629 2.16264 7.61117C2.149 7.5979 2.13778 7.58301 2.12845 7.5673L2.12797 7.55331C2.12525 7.55417 2.12197 7.55454 2.11754 7.55342C2.10528 7.54799 2.09287 7.53849 2.08007 7.52545C2.04743 7.47872 2.01063 7.46192 1.97532 7.43311C1.99439 7.36624 2.00619 7.37423 2.13524 7.5416C2.14543 7.55066 2.15538 7.5605 2.16481 7.57112C2.17798 7.57906 2.18881 7.59065 2.19728 7.60538L2.19893 7.60532L2.19748 7.60308C2.19071 7.59008 2.18786 7.57923 2.18781 7.56981C2.23037 7.4764 2.32242 7.67664 2.38502 7.70119L2.47182 7.80612L2.48733 7.82569C2.49741 7.83934 2.50612 7.85304 2.51346 7.86705C2.52027 7.88107 2.52456 7.8939 2.52662 7.9058C2.52784 7.91722 2.52765 7.92741 2.52661 7.93712C2.52494 7.9522 2.52014 7.96383 2.50563 7.96484C2.50284 7.96367 2.49977 7.96199 2.49697 7.96031C2.50408 7.9677 2.51094 7.97535 2.5178 7.98326C2.52922 7.9961 2.54095 8.0097 2.55183 8.02281C2.56696 8.0396 2.58265 8.05662 2.59903 8.07005C2.60914 8.07657 2.61374 8.07489 2.61775 8.07169L2.59996 8.04965L2.61041 8.04241L2.62877 8.06519C2.63928 8.06763 2.65047 8.0736 2.66344 8.08385C2.67703 8.09559 2.68982 8.10839 2.70237 8.12195C2.72863 8.15108 2.75301 8.1813 2.77633 8.21282C2.81702 8.26996 2.85248 8.32678 2.87667 8.38297C2.87881 8.38926 2.87983 8.39508 2.88028 8.40016L2.92618 8.4258C2.93805 8.43557 2.94967 8.44637 2.96054 8.45898L2.99153 8.49787C2.99787 8.50656 3.00283 8.51505 3.00613 8.52308L3.02497 8.52828L3.08039 8.59076C3.13046 8.58672 3.17289 8.71739 3.22311 8.70978C3.23361 8.68828 3.26165 8.71328 3.28997 8.73851C3.30134 8.74983 3.31219 8.76193 3.32305 8.77453C3.33047 8.78268 3.3379 8.79108 3.34452 8.80001L3.34297 8.79497C3.35677 8.80493 3.36708 8.8173 3.3731 8.83262C3.37374 8.83515 3.37408 8.83717 3.37443 8.8392C3.38221 8.84988 3.38944 8.86057 3.3964 8.87128C3.40136 8.87976 3.40549 8.88802 3.40852 8.89606C3.41071 8.89599 3.41263 8.89592 3.41512 8.8966C3.42596 8.90055 3.43745 8.90753 3.44957 8.91653C3.46117 8.92656 3.4728 8.93761 3.48392 8.94945C3.49448 8.96105 3.50503 8.97265 3.51531 8.984C3.53068 9.00001 3.54657 9.01499 3.56269 9.02869C3.57315 9.03749 3.58336 9.04706 3.59359 9.05714C3.60295 9.06573 3.61256 9.0738 3.62214 9.08085L3.60556 9.06182L3.62544 9.07335C3.62696 9.06973 3.62905 9.0666 3.63198 9.06421C3.64095 9.06186 3.65231 9.06477 3.6663 9.07268L3.68653 9.09413L3.68691 9.10507C3.68998 9.10649 3.69305 9.10791 3.69614 9.10984C3.70795 9.11808 3.7198 9.1276 3.73144 9.13865C3.74905 9.15586 3.76588 9.17411 3.78297 9.1921L3.79404 9.20267C3.78601 9.19276 3.77824 9.18234 3.77102 9.1719C3.76229 9.15769 3.7555 9.14392 3.75092 9.13084C3.75025 9.1273 3.75071 9.12474 3.75118 9.12243L3.73216 9.11214L3.7226 9.08982C3.72717 9.08711 3.73202 9.08465 3.73688 9.08219L3.7647 9.11686L3.82375 9.18126C3.83673 9.1915 3.84896 9.20381 3.86069 9.21765L3.87708 9.23898L3.88881 9.26072C3.88836 9.27118 3.88388 9.27668 3.87514 9.27775C3.87123 9.27585 3.86759 9.27369 3.86366 9.27102C3.87248 9.28014 3.88104 9.28951 3.88934 9.29941C3.90105 9.3125 3.91222 9.32586 3.92339 9.33947C3.93856 9.35727 3.95371 9.37482 3.96968 9.39209C3.96481 9.38615 3.96021 9.3802 3.95589 9.37424C3.94546 9.35856 3.93779 9.34329 3.93206 9.32847C3.93106 9.31552 3.93698 9.312 3.95121 9.31889L4.01136 9.3835C4.0252 9.39473 4.03828 9.40777 4.05033 9.42288L4.06678 9.44599L4.06889 9.45152L4.06981 9.45429C4.06981 9.45429 4.06956 9.4548 4.06929 9.45507L4.06721 9.45845C4.06109 9.46376 4.05493 9.46805 4.0479 9.47109C4.04678 9.47062 4.0471 9.47188 4.04483 9.46967L4.03774 9.46304L4.04348 9.47023C4.04463 9.47172 4.04492 9.47222 4.04492 9.47222L4.04495 9.47298C4.04495 9.47298 4.04584 9.47498 4.04615 9.47599C4.04623 9.47828 4.04632 9.48082 4.0456 9.4839L4.04695 9.48335C4.05133 9.48294 4.0549 9.48307 4.05769 9.48425C4.0602 9.48543 4.06245 9.48714 4.06444 9.4891C4.0667 9.49081 4.06841 9.49278 4.07013 9.49476C4.07212 9.49673 4.07384 9.49896 4.07557 9.50119C4.07756 9.50341 4.07902 9.50591 4.0805 9.50891L4.08112 9.51093L4.08167 9.51091C4.08414 9.51108 4.08662 9.51125 4.08908 9.51116L4.09771 9.52232C4.10201 9.51987 4.10475 9.51978 4.10649 9.52252C4.10937 9.52624 4.11298 9.52764 4.11101 9.54197C4.1104 9.54784 4.10924 9.554 4.10753 9.56017C4.10838 9.5609 4.10821 9.56371 4.1073 9.56909L4.10871 9.57031C4.10687 9.5882 4.11373 9.58821 4.11502 9.60166C4.11425 9.61111 4.11238 9.62034 4.10995 9.62934C4.10542 9.64121 4.10022 9.64929 4.09439 9.65535C4.08856 9.66115 4.08256 9.66213 4.07649 9.66132C4.07396 9.65963 4.07246 9.65586 4.07228 9.65077C4.06963 9.65341 4.06669 9.65555 4.0637 9.65642C4.06096 9.65652 4.05819 9.65585 4.05542 9.65518L4.05548 9.65671L4.0522 9.66497L4.05222 9.66548C4.05257 9.67565 4.05297 9.68709 4.05496 9.69696C4.05705 9.70172 4.05966 9.7057 4.06276 9.70814L4.06472 9.70935C4.06458 9.70528 4.06579 9.70065 4.06783 9.696C4.06901 9.69061 4.07021 9.68573 4.07196 9.68083C4.08041 9.67137 4.08497 9.6763 4.08898 9.68889L4.08918 9.69449C4.08967 9.69294 4.08989 9.69141 4.08989 9.69141C4.09376 9.69229 4.09641 9.69729 4.09783 9.70666C4.09821 9.7176 4.0963 9.72556 4.09236 9.73079L4.08779 9.7256L4.08706 9.72817L4.09049 9.73213L4.0919 9.73335L4.09264 9.73078L4.09887 9.72852L4.10023 9.73612C4.10082 9.72948 4.1017 9.72308 4.10369 9.71715C4.10445 9.71534 4.10548 9.71353 4.10623 9.71146L4.10496 9.70641C4.10544 9.69672 4.10677 9.68751 4.10866 9.67878C4.11113 9.67106 4.11422 9.66535 4.11712 9.66194C4.12018 9.6631 4.12201 9.66813 4.12312 9.6765C4.12338 9.68387 4.12278 9.69026 4.12159 9.69565L4.12383 9.69684C4.12651 9.70286 4.12817 9.7112 4.12886 9.72289C4.12879 9.72875 4.12842 9.73411 4.12777 9.73897C4.12885 9.73843 4.12966 9.73814 4.13073 9.73734L4.13335 9.73369L4.13447 9.72652C4.13447 9.72652 4.13667 9.72669 4.13753 9.72768L4.14247 9.71987C4.14541 9.71773 4.14785 9.71688 4.15062 9.71755C4.15479 9.71919 4.15876 9.72287 4.1625 9.72783C4.16508 9.7308 4.16769 9.73503 4.17005 9.73953C4.1724 9.74403 4.17481 9.75006 4.17723 9.7566L4.17814 9.75911C4.17799 9.75479 4.17868 9.75095 4.17938 9.74761C4.18123 9.74551 4.18295 9.74749 4.18452 9.75329C4.18442 9.75024 4.18464 9.7487 4.18492 9.74895C4.18764 9.74045 4.19057 9.7378 4.19393 9.73972C4.19561 9.74068 4.19733 9.74291 4.19936 9.74615C4.20111 9.74914 4.20352 9.75517 4.20481 9.75283C4.20481 9.75283 4.20538 9.75332 4.20566 9.75357C4.20737 9.75529 4.20884 9.75829 4.21065 9.76281C4.21194 9.75259 4.21407 9.75073 4.21673 9.75624C4.2195 9.7648 4.22098 9.77595 4.22121 9.7902L4.22378 9.78527C4.22761 9.77725 4.23173 9.76946 4.23553 9.76042L4.24073 9.7442C4.24257 9.7342 4.24469 9.7242 4.24653 9.71395C4.24908 9.70036 4.25229 9.69032 4.25611 9.68178C4.25787 9.67714 4.25966 9.67351 4.26174 9.67013C4.26457 9.66468 4.26769 9.65974 4.27053 9.6548C4.27233 9.65117 4.27441 9.64804 4.2765 9.64491L4.28161 9.63404C4.28329 9.62711 4.28438 9.61918 4.28464 9.61077C4.28499 9.60515 4.28564 9.60029 4.28686 9.59592C4.28808 9.59155 4.28933 9.58794 4.29086 9.58458C4.29238 9.58096 4.29391 9.57785 4.29573 9.57473C4.29725 9.57137 4.29907 9.56825 4.30088 9.56513L4.30517 9.55454C4.30584 9.55019 4.30679 9.54582 4.30719 9.54148C4.30719 9.53384 4.30721 9.52646 4.30753 9.51983C4.30876 9.50807 4.31258 9.49953 4.31666 9.49073C4.31818 9.48686 4.31998 9.48349 4.32206 9.48036C4.32384 9.47622 4.32411 9.47622 4.32541 9.47413C4.32335 9.47802 4.33505 9.45928 4.34154 9.44862C4.34879 9.4364 4.35578 9.42444 4.36249 9.41224C4.37591 9.38783 4.38851 9.36371 4.40028 9.33937C4.4241 9.29067 4.44517 9.2418 4.46624 9.19294C4.47234 9.17924 4.479 9.16551 4.48621 9.15202C4.48319 9.15212 4.48043 9.15145 4.47791 9.15001C4.47378 9.14176 4.47255 9.13034 4.47505 9.11548C4.4816 9.09081 4.49333 9.06519 4.50722 9.03874C4.51649 9.02135 4.52632 9.0042 4.53642 8.98705C4.54652 8.96963 4.55689 8.95246 4.56811 8.93578C4.59107 8.90187 4.6149 8.86921 4.64234 8.84559C4.65226 8.83913 4.65829 8.83867 4.66065 8.84368C4.66242 8.84718 4.66308 8.85022 4.66262 8.85278C4.66337 8.85071 4.66412 8.84865 4.66515 8.84658C4.67198 8.83004 4.67989 8.81296 4.68835 8.79612C4.69684 8.77978 4.70643 8.76366 4.71656 8.74752C4.72674 8.73239 4.73749 8.71801 4.7488 8.70412C4.7617 8.68865 4.77459 8.67266 4.7869 8.65568C4.78303 8.65506 4.77916 8.65417 4.77531 8.6538L4.75087 8.69259L4.74868 8.68503L4.73065 8.69508L4.73002 8.67702C4.7364 8.6633 4.74374 8.65363 4.75177 8.64774C4.75839 8.62511 4.774 8.60063 4.7847 8.57708C4.7937 8.55971 4.80465 8.54328 4.81701 8.52808C4.8294 8.51339 4.84209 8.49971 4.85484 8.48755L4.88533 8.44931C4.88872 8.45199 4.89238 8.45466 4.89629 8.45682C4.88044 8.50575 4.81539 8.56022 4.81757 8.607C4.82484 8.59503 4.83211 8.58332 4.83993 8.57159C4.90077 8.49078 4.94503 8.40674 4.9821 8.32116C4.99108 8.30328 5.00173 8.2861 5.01321 8.26889C5.03099 8.24383 5.04961 8.21924 5.06768 8.19442C5.07942 8.17721 5.09118 8.16025 5.10293 8.14303C5.18947 8.02033 5.26578 7.8957 5.32441 7.76736C5.33184 7.75208 5.34036 7.73701 5.34917 7.72193L5.33167 7.74724L5.32946 7.73892L5.31079 7.74645L5.31332 7.72471C5.33317 7.68812 5.35832 7.65388 5.38179 7.61894C5.3917 7.60408 5.40206 7.5943 5.41228 7.58834C5.41165 7.58607 5.41158 7.58404 5.41289 7.58246C5.42437 7.55762 5.43893 7.53445 5.45963 7.51437C5.47279 7.50602 5.48156 7.50571 5.48463 7.51503L5.43666 7.59513L5.4334 7.58811C5.42122 7.60865 5.40875 7.6287 5.39713 7.64947C5.41099 7.63015 5.42628 7.6123 5.44188 7.5952C5.5686 7.42883 5.69005 7.26087 5.78832 7.08123C5.82189 7.02888 5.85685 6.97724 5.89321 6.92606L6.00397 6.77426C6.07754 6.67289 6.14861 6.57085 6.20852 6.4636C6.2693 6.37337 6.33481 6.28477 6.40033 6.19667C6.46613 6.10882 6.53027 6.02051 6.58658 5.9279L6.59072 5.92063C6.56781 5.94027 6.54384 5.96886 6.5215 5.98135C6.50469 5.94782 6.56868 5.9023 6.58325 5.86385C6.6301 5.79907 6.66344 5.70878 6.73646 5.69401C6.71776 5.73184 6.7146 5.76734 6.67678 5.80788C6.7548 5.7555 6.82283 5.67623 6.88832 5.58736C7.04797 5.37376 7.21127 5.16282 7.3726 4.95043C7.3982 4.88181 7.45313 4.82056 7.50338 4.75871L7.5835 4.64872C7.61213 4.59628 7.65334 4.55054 7.69314 4.50383C7.7243 4.46913 7.75464 4.4342 7.7844 4.39853L7.84076 4.32298L7.92394 4.22204C7.95356 4.1823 7.98262 4.14233 8.01083 4.10162C8.03142 4.07035 8.05592 4.04123 8.07958 4.01163L8.30079 3.73807L8.52779 3.45744C8.59732 3.37404 8.66118 3.28574 8.73806 3.20845C8.74162 3.20833 8.74491 3.20821 8.7482 3.2081L9.24291 2.60263L9.27802 2.57085L9.26952 2.57115L9.36657 2.46642L9.39022 2.42867L9.47606 2.33324C9.49732 2.30551 9.51775 2.27755 9.53817 2.24959C9.5562 2.22376 9.57594 2.19964 9.60082 2.1812C9.73054 2.07711 9.83244 1.9386 9.94548 1.81269C10.0088 1.74147 10.067 1.66305 10.1428 1.6105C10.1997 1.51888 10.2951 1.44374 10.35 1.35118C10.4534 1.20701 10.5852 1.10896 10.7087 0.998725C10.7134 0.985064 10.7223 0.97126 10.7358 0.957039C10.7559 0.938001 10.7767 0.918689 10.7971 0.899641C10.8184 0.878784 10.8399 0.858681 10.862 0.841102L10.8628 0.840564C10.8628 0.840564 10.862 0.838813 10.8622 0.837277C10.8631 0.831136 10.8651 0.825973 10.8688 0.822024L10.8993 0.7848C10.9057 0.771337 10.9146 0.757787 10.9264 0.744132L10.9618 0.704447L11.0152 0.645038C11.0276 0.631618 11.0407 0.621231 11.0539 0.614404L11.0517 0.622119C11.0491 0.659384 10.9662 0.735359 11.0006 0.755799L10.9959 0.775827C10.9783 0.805979 10.9569 0.829897 10.9309 0.847356C10.9374 0.845855 10.9429 0.845409 10.9481 0.84599L10.9916 0.802967L11.0235 0.76595C11.0264 0.76916 11.0292 0.771862 11.0326 0.77429L11.0015 0.811533C10.9937 0.82301 10.9856 0.834497 10.9775 0.846238L10.9656 0.858876C10.9656 0.858876 10.9661 0.859619 10.9664 0.860118C10.9666 0.864188 10.9659 0.868285 10.9655 0.872628C11.0038 0.846845 11.0478 0.810424 11.0525 0.84922C11.0459 0.865237 11.0363 0.881867 11.024 0.899102C10.9906 0.939228 10.9572 0.979608 10.9192 1.01684C10.9498 0.989286 10.9747 0.956078 11.003 0.926062C11.0562 0.870223 11.0993 0.805827 11.1584 0.755128C11.1752 0.741046 11.1919 0.731043 11.2078 0.723612L11.2222 0.727692C11.224 0.738834 11.2206 0.752701 11.213 0.769519C11.2055 0.784293 11.1973 0.799604 11.1874 0.814972C11.1958 0.813658 11.2025 0.814446 11.2075 0.818088C11.2116 0.824058 11.213 0.832412 11.2119 0.842378C11.2087 0.858789 11.2019 0.876595 11.191 0.896325C11.1799 0.915302 11.1663 0.934111 11.1516 0.952957C11.1421 0.965001 11.1321 0.976809 11.1221 0.988617L11.1071 1.00646C11.0941 1.03543 11.0662 1.06925 11.0529 1.09848C11.1166 1.04304 11.177 0.972187 11.2442 0.933427C11.4086 0.847988 11.5411 0.659264 11.6931 0.53377C11.6973 0.536424 11.7016 0.539078 11.7058 0.541478C11.6817 0.599609 11.612 0.646094 11.5799 0.701705C11.5338 0.772319 11.466 0.835033 11.4144 0.903549C11.3968 0.926571 11.3781 0.949121 11.356 0.968227L11.3553 0.970799ZM1.28639 8.0008C1.2855 7.99879 1.28432 7.99654 1.28342 7.99428C1.2812 7.9936 1.27899 7.99316 1.2765 7.99249C1.2799 7.99542 1.28302 7.99837 1.28639 8.0008ZM2.41611 7.8842C2.39272 7.85879 2.37011 7.83208 2.34855 7.80406C2.33617 7.78743 2.32516 7.77075 2.31496 7.75354C2.30558 7.7363 2.30009 7.7207 2.29684 7.70605L2.29732 7.70425L2.28886 7.70556C2.27762 7.69781 2.26659 7.68852 2.25578 7.67744C2.24808 7.6693 2.24065 7.66065 2.2332 7.65174C2.23155 7.65155 2.2296 7.65085 2.22766 7.65015L2.22942 7.66919L2.22197 7.66792C2.22962 7.67478 2.23459 7.68352 2.23687 7.69388L2.23968 7.69582L2.22625 7.70418C2.22877 7.70562 2.23128 7.70681 2.23381 7.7085C2.2465 7.71825 2.25896 7.72927 2.27146 7.74156C2.28397 7.75411 2.29623 7.76718 2.3085 7.78076C2.32188 7.79455 2.3347 7.8081 2.34807 7.82164C2.37025 7.84404 2.39318 7.86412 2.41611 7.88445L2.41611 7.8842ZM2.97781 8.52916L2.96636 8.51556L2.93853 8.48088L2.92636 8.46246L2.91098 8.44619L2.8818 8.40418C2.88197 8.40927 2.88131 8.41387 2.87953 8.41776C2.86614 8.4195 2.84952 8.40709 2.83269 8.38884C2.83413 8.39057 2.82618 8.37531 2.82618 8.37531C2.82618 8.37531 2.82404 8.38455 2.8246 8.38504C2.83501 8.39232 2.8441 8.40117 2.85246 8.41259C2.86269 8.42267 2.87262 8.432 2.88279 8.44056C2.89864 8.45426 2.91448 8.46797 2.93033 8.48168C2.94136 8.49122 2.95188 8.5018 2.96242 8.51289C2.96755 8.51832 2.97268 8.52374 2.97753 8.52917L2.97781 8.52916ZM3.18706 8.75407L3.17243 8.73574C3.16181 8.72236 3.1512 8.70924 3.14058 8.69586C3.13198 8.68521 3.12392 8.67454 3.11613 8.66361L3.06825 8.61258C3.05329 8.60062 3.03935 8.58634 3.02696 8.56946L3.01623 8.55303C3.01623 8.55303 3.01438 8.55487 3.01187 8.55369C3.00573 8.55085 3.00066 8.54721 2.99693 8.5425L2.99634 8.54914C3.00631 8.55949 3.016 8.56984 3.02569 8.5802L3.07563 8.62734C3.09835 8.64946 3.11977 8.67342 3.1404 8.69841C3.15069 8.71028 3.16072 8.72266 3.17048 8.73479L3.18734 8.75407L3.18706 8.75407ZM4.2213 9.79274L4.21621 9.79649C4.2163 9.79903 4.21638 9.80132 4.21646 9.80361L4.2185 9.79921L4.22156 9.79248L4.2213 9.79274ZM4.66146 8.85893C4.64619 8.89307 4.62184 8.92652 4.59859 8.96018C4.57592 8.99432 4.55461 9.02868 4.54404 9.06368C4.56869 9.03099 4.59083 8.99711 4.61049 8.96307C4.63072 8.92926 4.64761 8.89455 4.66146 8.85893ZM6.09814 8.84237C6.09394 8.84761 6.09112 8.85331 6.08941 8.85948L6.09814 8.84237ZM6.51762 8.16467C6.4683 8.23743 6.40017 8.30576 6.37606 8.38554C6.39983 8.35899 6.42224 8.34064 6.44104 8.34457C6.44241 8.34452 6.44348 8.34397 6.44485 8.34367C6.44408 8.33758 6.44171 8.33232 6.4369 8.32816C6.45313 8.28227 6.48127 8.23953 6.51551 8.19861L6.52135 8.1928C6.51567 8.1874 6.51505 8.17749 6.51735 8.16468L6.51762 8.16467ZM6.15132 6.67999L6.14976 6.68234L6.15111 6.68178L6.15104 6.67975L6.15132 6.67999ZM10.6959 2.09306L10.6807 2.10708C10.657 2.12802 10.6317 2.14291 10.6088 2.16867C10.599 2.1797 10.5892 2.19074 10.58 2.20226L10.5772 2.20694C10.592 2.19064 10.6076 2.17533 10.6239 2.16101C10.6436 2.14479 10.6627 2.13241 10.6815 2.12182L10.6974 2.11261L10.6936 2.10816L10.6956 2.09306L10.6959 2.09306ZM10.6176 1.99063L10.6043 2.00255C10.5908 2.01473 10.5772 2.02616 10.5635 2.03606C10.5672 2.04026 10.568 2.04761 10.5643 2.05844C10.5633 2.06051 10.5623 2.06258 10.5612 2.06491C10.5654 2.05942 10.5696 2.05367 10.5741 2.04791C10.5824 2.03514 10.5916 2.0226 10.6016 2.01028C10.6068 2.00373 10.6124 1.99717 10.6179 1.99087L10.6176 1.99063ZM10.7813 2.00172L10.7512 2.03536L10.7528 2.03454C10.757 2.02981 10.7615 2.02532 10.7666 2.02133L10.7813 2.00172ZM11.3398 0.982544C11.3327 0.985844 11.3257 0.988128 11.3183 0.997805C11.3249 0.998339 11.3323 0.989678 11.3398 0.982544Z" fill="#F38B2B"/>
</svg>
