<svg width="116" height="179" viewBox="0 0 116 179" fill="none" xmlns="http://www.w3.org/2000/svg">
<path id="Shape" d="M1 0.5C0.723858 0.5 0.5 0.723858 0.5 1C0.5 1.27614 0.723858 1.5 1 1.5V0.5ZM114.916 175.354C115.111 175.158 115.111 174.842 114.916 174.646L111.734 171.464C111.539 171.269 111.222 171.269 111.027 171.464C110.832 171.66 110.832 171.976 111.027 172.172L113.855 175L111.027 177.828C110.832 178.024 110.832 178.34 111.027 178.536C111.222 178.731 111.539 178.731 111.734 178.536L114.916 175.354ZM1 1.5H28.5625V0.5H1V1.5ZM52.0625 25V151H53.0625V25H52.0625ZM76.5625 175.5H114.562V174.5H76.5625V175.5ZM52.0625 151C52.0625 164.531 63.0315 175.5 76.5625 175.5V174.5C63.5838 174.5 53.0625 163.979 53.0625 151H52.0625ZM28.5625 1.5C41.5412 1.5 52.0625 12.0213 52.0625 25H53.0625C53.0625 11.469 42.0935 0.5 28.5625 0.5V1.5Z" fill="#E9EAEB"/>
</svg>
