<svg width="117" height="92" viewBox="0 0 117 92" fill="none" xmlns="http://www.w3.org/2000/svg">
<path id="Shape" d="M1.1875 0.5C0.911358 0.5 0.6875 0.723858 0.6875 1C0.6875 1.27614 0.911358 1.5 1.1875 1.5V0.5ZM115.916 88.3536C116.111 88.1583 116.111 87.8417 115.916 87.6465L112.734 84.4645C112.539 84.2692 112.222 84.2692 112.027 84.4645C111.832 84.6597 111.832 84.9763 112.027 85.1716L114.855 88L112.027 90.8284C111.832 91.0237 111.832 91.3403 112.027 91.5355C112.222 91.7308 112.539 91.7308 112.734 91.5355L115.916 88.3536ZM1.1875 1.5H29.5625V0.5H1.1875V1.5ZM53.0625 25V64H54.0625V25H53.0625ZM77.5625 88.5H115.562V87.5H77.5625V88.5ZM53.0625 64C53.0625 77.531 64.0315 88.5 77.5625 88.5V87.5C64.5838 87.5 54.0625 76.9787 54.0625 64H53.0625ZM29.5625 1.5C42.5412 1.5 53.0625 12.0213 53.0625 25H54.0625C54.0625 11.469 43.0935 0.5 29.5625 0.5V1.5Z" fill="#E9EAEB"/>
</svg>
